<svg xmlns="http://www.w3.org/2000/svg" viewBox="0 0 1250.313983 1319.482661" fill="#06b6d4" >
  <g transform="translate(-144.500000,1427.637409) scale(0.100000,-0.100000)">
  <path d="M7345 14273 c-832 -14 -1105 -22 -1195 -38 -285 -48 -313 -53 -485
-91 -102 -22 -174 -41 -350 -90 -70 -20 -339 -109 -405 -134 -30 -12 -66 -25
-80 -30 -26 -8 -232 -96 -310 -132 -366 -167 -728 -388 -1049 -638 -295 -229
-634 -565 -840 -830 -69 -89 -154 -203 -177 -235 -11 -16 -42 -61 -69 -100
-94 -137 -253 -413 -343 -595 -109 -222 -152 -316 -152 -331 0 -6 -6 -23 -14
-37 -8 -15 -21 -45 -29 -67 -31 -83 -49 -131 -63 -163 -8 -18 -14 -39 -14 -47
0 -8 -6 -29 -14 -47 -8 -18 -22 -60 -32 -93 -9 -33 -23 -78 -29 -100 -41 -133
-91 -331 -118 -465 -85 -411 -132 -838 -132 -1185 l0 -170 240 5 c469 10 1316
5 1520 -8 741 -49 1135 -157 1452 -400 142 -109 321 -310 474 -532 152 -220
186 -269 243 -355 32 -49 68 -100 79 -112 l20 -23 577 0 576 0 31 33 c33 35
129 164 243 327 193 276 269 371 419 520 88 88 297 260 315 260 3 0 24 13 48
29 91 60 315 157 448 194 254 69 350 79 796 78 215 -1 426 -6 470 -11 43 -6
115 -15 159 -20 78 -8 118 -16 240 -47 357 -91 590 -268 831 -633 27 -41 54
-82 59 -92 6 -10 44 -73 84 -140 41 -68 81 -134 89 -148 7 -14 22 -38 32 -55
10 -16 25 -41 32 -55 8 -14 61 -103 119 -198 57 -95 110 -182 117 -195 16 -28
83 -129 203 -309 53 -79 135 -204 184 -278 341 -525 407 -596 605 -653 82 -24
401 -39 754 -35 262 3 310 5 317 18 5 8 23 47 40 85 59 133 77 176 117 275 16
41 40 100 53 130 36 90 60 153 69 185 5 17 18 55 30 85 12 30 25 69 30 85 5
17 14 46 21 65 6 19 17 51 24 70 7 19 20 62 30 95 10 33 23 80 31 105 55 184
113 415 149 600 9 47 23 113 31 147 8 34 14 75 14 90 0 15 6 61 14 103 20 101
42 294 62 531 18 221 16 714 -5 919 -28 277 -80 606 -117 736 -8 28 -14 60
-14 71 0 11 -6 39 -14 64 -7 24 -21 71 -30 104 -36 132 -100 330 -136 425 -12
30 -25 66 -30 80 -8 25 -22 61 -46 115 -35 80 -68 154 -86 195 -32 71 -143
291 -167 330 -11 19 -24 42 -28 50 -15 34 -156 264 -199 327 -26 37 -67 97
-92 133 -47 68 -216 290 -248 325 -11 12 -44 50 -74 85 -81 97 -241 262 -411
426 -189 181 -470 400 -752 587 -40 26 -79 50 -87 54 -8 4 -33 19 -55 34 -22
15 -58 37 -80 49 -22 12 -67 37 -100 56 -105 60 -432 218 -542 263 -29 11 -77
31 -105 43 -66 27 -233 87 -273 97 -16 5 -41 13 -55 18 -23 10 -57 20 -185 56
-216 62 -404 100 -730 148 -77 12 -1460 20 -1930 12z"/>
  <path d="M6045 6440 c-3 -6 4 -25 17 -42 13 -18 28 -40 33 -50 9 -15 61 -98
115 -183 8 -13 35 -56 60 -95 25 -39 52 -82 60 -95 8 -13 41 -66 73 -117 32
-51 87 -138 123 -193 35 -55 67 -107 71 -115 4 -8 25 -42 48 -75 23 -34 44
-67 48 -75 4 -8 36 -60 71 -115 36 -55 91 -142 123 -193 32 -51 65 -104 73
-117 8 -13 35 -56 60 -95 25 -39 52 -82 60 -95 8 -13 35 -56 60 -95 25 -39 52
-82 60 -95 8 -13 41 -65 73 -117 32 -51 81 -127 108 -168 27 -41 53 -84 59
-95 6 -11 33 -54 60 -95 27 -41 54 -84 60 -95 6 -11 39 -65 74 -120 36 -55 81
-126 101 -159 l38 -58 -22 -42 c-12 -22 -32 -59 -44 -81 -30 -55 -58 -124 -96
-235 -21 -62 -43 -203 -44 -285 -2 -230 94 -462 273 -658 93 -101 241 -219
344 -272 21 -11 41 -29 45 -40 4 -11 3 -233 -2 -493 -5 -260 -6 -480 -3 -488
5 -12 63 -14 408 -12 l403 3 5 505 5 504 104 70 c346 232 541 552 541 888 0
146 -29 282 -92 432 l-29 70 48 50 c27 28 50 53 53 56 3 3 66 70 140 150 74
80 171 183 215 229 44 46 85 89 90 95 23 24 280 302 290 312 57 60 303 323
350 373 77 84 96 104 176 187 36 38 125 134 199 214 74 80 149 161 167 180 18
19 33 38 33 43 0 4 -39 51 -86 105 -162 182 -314 399 -355 504 -15 37 -38 43
-63 16 -11 -13 -79 -86 -150 -163 -72 -77 -135 -145 -141 -151 -5 -6 -46 -49
-91 -95 -44 -46 -147 -156 -229 -244 -82 -88 -154 -165 -160 -171 -5 -6 -73
-78 -151 -160 -123 -131 -269 -287 -299 -320 -5 -6 -46 -49 -91 -95 -44 -46
-147 -156 -229 -244 -82 -88 -178 -191 -214 -228 -36 -37 -68 -71 -71 -76 -13
-19 -48 -20 -137 -1 -118 25 -296 27 -349 5 -41 -17 -60 -12 -80 24 -8 14 -22
38 -32 53 -9 14 -44 70 -77 123 -33 53 -67 107 -75 120 -8 13 -42 67 -75 120
-33 53 -67 107 -75 120 -8 13 -42 67 -75 120 -33 53 -67 107 -75 120 -8 13
-42 67 -75 120 -33 53 -67 107 -75 120 -8 13 -42 67 -75 120 -33 53 -67 107
-75 120 -8 13 -35 56 -60 95 -25 39 -52 82 -60 95 -8 13 -42 67 -75 120 -33
53 -67 107 -75 120 -8 13 -35 56 -60 95 -25 39 -53 83 -62 98 -9 15 -23 37
-30 49 -12 20 -77 123 -118 188 -8 13 -28 45 -44 72 -16 26 -40 63 -53 81
l-24 32 -469 0 c-304 0 -471 -4 -475 -10z"/>
  </g>
</svg>
